<svg xmlns="http://www.w3.org/2000/svg" viewBox="0 0 260 320" fill="none" aria-hidden="true">
  <!-- Soft pack / pouch  transparent bg -->
  <defs>
    <linearGradient id="pouch" x1="30" y1="20" x2="230" y2="300" gradientUnits="userSpaceOnUse">
      <stop stop-color="#FFFEF9"/>
      <stop offset="0.4" stop-color="#F2ECE1"/>
      <stop offset="1" stop-color="#D8CFBE"/>
    </linearGradient>
  </defs>
  <path d="M48 36 C48 24 58 16 70 16 H190 C202 16 212 24 212 36 V268 C212 292 188 308 160 308 H100 C72 308 48 292 48 268 Z" fill="url(#pouch)" stroke="#B7AFA0" stroke-width="1.5"/>
  <!-- seal top -->
  <rect x="56" y="28" width="148" height="18" rx="3" fill="#E8E2D4" stroke="#C8C0B0" stroke-width="1"/>
  <path d="M70 48 C90 120 90 200 88 260" stroke="#FFFFFF" stroke-opacity="0.4" stroke-width="16" stroke-linecap="round"/>
  <!-- label -->
  <rect x="78" y="110" width="104" height="96" rx="8" fill="#F7F7F2" stroke="#C8C0B0" stroke-width="1"/>
  <text x="130" y="148" text-anchor="middle" fill="#2C2A26" font-family="Manrope, Helvetica, Arial, sans-serif" font-size="12" font-weight="600" letter-spacing="1.5">ALFURIN</text>
  <text x="130" y="170" text-anchor="middle" fill="#8A9A7B" font-family="Manrope, Helvetica, Arial, sans-serif" font-size="8" letter-spacing="1">LOTION PACK</text>
  <line x1="98" y1="184" x2="162" y2="184" stroke="#DDD8CE"/>
  <text x="130" y="202" text-anchor="middle" fill="#7A756C" font-family="Manrope, Helvetica, Arial, sans-serif" font-size="7">Swiss</text>
</svg>
